<svg width="47" height="47" viewBox="0 0 47 47" fill="none" xmlns="http://www.w3.org/2000/svg">
<path d="M14.7559 0.5764L13.142 0L12.7961 18.099L14.4101 18.5601L14.7559 0.5764Z" fill="#1556BC"/>
<path d="M17.6379 1.4987L16.0239 0.922302L15.6781 19.0213L17.292 19.4824L17.6379 1.4987Z" fill="#1556BC"/>
<path d="M20.1741 2.42088L18.5602 1.84448L18.2144 19.9435L19.8283 20.4046L20.1741 2.42088Z" fill="#1556BC"/>
<path d="M23.1714 3.34312L21.5575 2.76672L21.2117 20.8657L22.8256 21.3268L23.1714 3.34312Z" fill="#1556BC"/>
<path d="M41.5916 5.96195L41.6563 4.24941L24.2902 9.35912L24.3354 11.037L41.5916 5.96195Z" fill="#1556BC"/>
<path d="M41.5782 8.98783L41.6429 7.27529L24.2767 12.385L24.322 14.0629L41.5782 8.98783Z" fill="#1556BC"/>
<path d="M41.4608 11.6839L41.5254 9.97139L24.1593 15.0811L24.2046 16.759L41.4608 11.6839Z" fill="#1556BC"/>
<path d="M41.4819 14.8199L41.5466 13.1073L24.1804 18.217L24.2257 19.8949L41.4819 14.8199Z" fill="#1556BC"/>
<path d="M45.0918 33.3718L46.7249 32.8522L36.0319 18.2457L34.4686 18.8569L45.0918 33.3718Z" fill="#75B841"/>
<path d="M42.2403 34.3846L43.8735 33.8651L33.1804 19.2586L31.6172 19.8698L42.2403 34.3846Z" fill="#75B841"/>
<path d="M39.6642 35.188L41.2973 34.6684L30.6042 20.0619L29.041 20.6731L39.6642 35.188Z" fill="#75B841"/>
<path d="M36.7211 36.2708L38.3542 35.7513L27.6611 21.1447L26.0979 21.756L36.7211 36.2708Z" fill="#75B841"/>
<path d="M20.02 44.5155L21.0128 45.9124L31.6632 31.2747L30.6044 29.9723L20.02 44.5155Z" fill="#1556BC"/>
<path d="M18.1858 42.1087L19.1786 43.5056L29.829 28.868L28.7701 27.5656L18.1858 42.1087Z" fill="#1556BC"/>
<path d="M16.6352 39.9L17.628 41.297L28.2784 26.6593L27.2196 25.3569L16.6352 39.9Z" fill="#1556BC"/>
<path d="M14.7065 37.4273L15.6993 38.8242L26.3497 24.1865L25.2909 22.8841L14.7065 37.4273Z" fill="#1556BC"/>
<path d="M1.10934 24.8329L0.0982373 26.2166L17.3534 31.6892L18.254 30.2728L1.10934 24.8329Z" fill="#1556BC"/>
<path d="M2.81222 22.3316L1.80112 23.7153L19.0563 29.188L19.9569 27.7715L2.81222 22.3316Z" fill="#1556BC"/>
<path d="M4.41695 20.1618L3.40585 21.5455L20.6611 27.0182L21.5616 25.6018L4.41695 20.1618Z" fill="#1556BC"/>
<path d="M6.15255 17.55L5.14145 18.9337L22.3967 24.4063L23.2972 22.9899L6.15255 17.55Z" fill="#1556BC"/>
</svg>
