<svg width="75" height="79" viewBox="0 0 75 79" fill="none" xmlns="http://www.w3.org/2000/svg">
<path d="M75 5.58511C75 4.10384 74.4116 2.68325 73.3642 1.63584C72.3167 0.588429 70.8962 0 69.4149 0H5.58511C4.10384 0 2.68325 0.588429 1.63584 1.63584C0.58843 2.68325 0 4.10384 0 5.58511V29.0027C0 64.109 29.8005 75.7979 35.7846 77.7527C36.8981 78.1238 38.1019 78.1238 39.2154 77.7527C45.1995 75.7979 75 64.109 75 29.0027V5.58511ZM37.7394 73.2048C37.6654 73.2432 37.5833 73.2633 37.5 73.2633C37.4167 73.2633 37.3346 73.2432 37.2606 73.2048C31.8351 71.4096 4.78723 60.8378 4.78723 29.0027V5.58511C4.78723 5.3735 4.87129 5.17055 5.02093 5.02092C5.17056 4.87129 5.3735 4.78723 5.58511 4.78723H69.4149C69.6265 4.78723 69.8294 4.87129 69.9791 5.02092C70.1287 5.17055 70.2128 5.3735 70.2128 5.58511V29.0027C70.2128 60.8378 43.1649 71.4096 37.7394 73.2048ZM56.7686 23.0984C56.9854 23.3226 57.1555 23.5877 57.269 23.8782C57.3825 24.1687 57.4371 24.4788 57.4297 24.7906C57.4223 25.1024 57.3529 25.4096 57.2257 25.6944C57.0986 25.9792 56.9161 26.2358 56.6888 26.4495L33.3112 48.7899C32.8561 49.2159 32.2589 49.4576 31.6356 49.4681C31.0221 49.4678 30.4337 49.2239 30 48.7899L18.3112 37.6197C17.8562 37.1859 17.5922 36.5891 17.5772 35.9607C17.5623 35.3322 17.7976 34.7236 18.2314 34.2686C18.6652 33.8137 19.2619 33.5497 19.8904 33.5347C20.5188 33.5197 21.1275 33.755 21.5824 34.1888L31.6356 43.7633L53.4176 23.0186C53.6418 22.8018 53.9068 22.6317 54.1973 22.5182C54.4878 22.4048 54.798 22.3501 55.1098 22.3576C55.4216 22.365 55.7288 22.4343 56.0136 22.5615C56.2983 22.6887 56.555 22.8712 56.7686 23.0984Z" fill="#91BCFF"/>
</svg>
