<svg width="75" height="88" viewBox="0 0 75 88" fill="none" xmlns="http://www.w3.org/2000/svg">
<path d="M37.5 12.4517C30.0832 12.4517 22.833 14.6426 16.6661 18.7472C10.4993 22.8519 5.69282 28.686 2.85453 35.5117C0.0162482 42.3375 -0.726377 49.8484 0.720569 57.0946C2.16751 64.3408 5.73904 70.9968 10.9835 76.2211C16.228 81.4453 22.9098 85.003 30.1841 86.4444C37.4584 87.8857 44.9984 87.146 51.8506 84.3186C58.7029 81.4913 64.5596 76.7034 68.6801 70.5604C72.8007 64.4174 75 57.1951 75 49.8069C74.9794 39.906 71.0219 30.4165 63.9937 23.4155C56.9656 16.4145 47.4393 12.4723 37.5 12.4517ZM37.5 80.9363C31.3193 80.9363 25.2775 79.1106 20.1384 75.69C14.9994 72.2695 10.994 67.4078 8.62878 61.7196C6.26354 56.0315 5.64469 49.7724 6.85048 43.7339C8.05626 37.6954 11.0325 32.1487 15.4029 27.7952C19.7733 23.4417 25.3415 20.4769 31.4034 19.2757C37.4653 18.0746 43.7487 18.6911 49.4589 21.0472C55.1691 23.4033 60.0496 27.3932 63.4834 32.5124C66.9172 37.6316 68.75 43.6501 68.75 49.8069C68.7397 58.0598 65.4439 65.9717 59.5857 71.8073C53.7274 77.643 45.7849 80.926 37.5 80.9363ZM55.1953 32.18C55.7821 32.7701 56.1113 33.5672 56.1113 34.3979C56.1113 35.2286 55.7821 36.0257 55.1953 36.6159L39.7266 52.0249C39.1293 52.6002 38.3309 52.9219 37.5 52.9219C36.6691 52.9219 35.8708 52.6002 35.2734 52.0249C34.6866 51.4347 34.3574 50.6376 34.3574 49.8069C34.3574 48.9763 34.6866 48.1792 35.2734 47.589L50.7422 32.18C51.3347 31.5954 52.1349 31.2675 52.9688 31.2675C53.8027 31.2675 54.6028 31.5954 55.1953 32.18ZM25 3.11293C25 2.28733 25.3293 1.49555 25.9153 0.911757C26.5014 0.327969 27.2962 0 28.125 0L46.875 0C47.7038 0 48.4987 0.327969 49.0847 0.911757C49.6708 1.49555 50 2.28733 50 3.11293C50 3.93854 49.6708 4.73032 49.0847 5.31411C48.4987 5.8979 47.7038 6.22587 46.875 6.22587H28.125C27.2962 6.22587 26.5014 5.8979 25.9153 5.31411C25.3293 4.73032 25 3.93854 25 3.11293Z" fill="#91BCFF"/>
</svg>
