<svg width="75" height="70" viewBox="0 0 75 70" fill="none" xmlns="http://www.w3.org/2000/svg">
<path d="M69.8529 11.7647H54.4118V8.08823C54.4021 5.94608 53.5468 3.89442 52.0321 2.37967C50.5173 0.864927 48.4657 0.00967127 46.3235 0H28.6765C26.5343 0.00967127 24.4827 0.864927 22.9679 2.37967C21.4532 3.89442 20.5979 5.94608 20.5882 8.08823V11.7647H5.14706C3.78197 11.7647 2.4728 12.307 1.50754 13.2722C0.542278 14.2375 0 15.5467 0 16.9118V63.9706C0 65.3357 0.542278 66.6448 1.50754 67.6101C2.4728 68.5754 3.78197 69.1176 5.14706 69.1176H69.8529C71.218 69.1176 72.5272 68.5754 73.4925 67.6101C74.4577 66.6448 75 65.3357 75 63.9706V16.9118C75 15.5467 74.4577 14.2375 73.4925 13.2722C72.5272 12.307 71.218 11.7647 69.8529 11.7647ZM25 8.08823C25 7.11317 25.3873 6.17805 26.0768 5.48858C26.7663 4.79911 27.7014 4.41176 28.6765 4.41176H46.3235C47.2986 4.41176 48.2337 4.79911 48.9232 5.48858C49.6127 6.17805 50 7.11317 50 8.08823V11.7647H25V8.08823ZM5.14706 16.1765H69.8529C70.048 16.1765 70.235 16.2539 70.3729 16.3918C70.5108 16.5297 70.5882 16.7168 70.5882 16.9118V32.6471C60.4607 38.2505 49.0743 41.1856 37.5 41.1765C25.9263 41.1808 14.5411 38.2459 4.41176 32.6471V16.9118C4.41176 16.7168 4.48923 16.5297 4.62713 16.3918C4.76502 16.2539 4.95205 16.1765 5.14706 16.1765ZM69.8529 64.7059H5.14706C4.95205 64.7059 4.76502 64.6284 4.62713 64.4905C4.48923 64.3526 4.41176 64.1656 4.41176 63.9706V37.6471C14.6623 42.8618 25.9993 45.5827 37.5 45.5882C49.0007 45.5827 60.3377 42.8618 70.5882 37.6471V63.9706C70.5882 64.1656 70.5108 64.3526 70.3729 64.4905C70.235 64.6284 70.048 64.7059 69.8529 64.7059ZM30.8824 31.6176C30.8824 31.0326 31.1148 30.4715 31.5284 30.0579C31.9421 29.6442 32.5032 29.4118 33.0882 29.4118H41.9118C42.4968 29.4118 43.0579 29.6442 43.4716 30.0579C43.8852 30.4715 44.1176 31.0326 44.1176 31.6176C44.1176 32.2027 43.8852 32.7638 43.4716 33.1774C43.0579 33.5911 42.4968 33.8235 41.9118 33.8235H33.0882C32.5032 33.8235 31.9421 33.5911 31.5284 33.1774C31.1148 32.7638 30.8824 32.2027 30.8824 31.6176Z" fill="#91BCFF"/>
</svg>
